<svg width="241" height="50" viewBox="0 0 241 50" fill="none" xmlns="http://www.w3.org/2000/svg">
<g clip-path="url(#clip0_207_256)">
<path d="M35.4473 30.3071L27.4366 38.3178L19.4259 30.3071L27.4366 22.2964L35.4473 30.3071ZM38.9853 10.7477L30.9746 18.7584L38.9853 26.7691L46.996 18.7584L38.9853 10.7477ZM38.9853 33.8452L30.9746 41.8558L38.785 49.6662H53.3378C53.8718 49.6662 54.1388 48.9987 53.7383 48.6649L38.9853 33.8452ZM50.534 22.2964L42.5234 30.3071L54.8732 42.6569V27.4366C54.8732 26.9693 54.6729 26.502 54.3391 26.1683L50.534 22.2964ZM0 27.4366V42.6569L35.4473 7.20964L28.7717 0.534072C28.0374 -0.200241 26.9025 -0.200241 26.235 0.534072L0.600801 26.1683C0.200267 26.502 0 26.9693 0 27.4366ZM15.8878 33.8452L1.13485 48.5982C0.734312 48.9987 1.00134 49.5995 1.53538 49.5995H31.7089L15.8878 33.8452Z" fill="white"/>
<path d="M94.3925 49.6663H102.136L88.9853 10.7477H79.5727L66.4219 49.6663H74.1655L76.9025 41.0548H91.5888L94.3925 49.6663ZM89.5193 34.446H79.1055L83.6448 20.494H84.98L89.5193 34.446ZM152.27 21.9626H145.461V49.6663H152.27V21.9626ZM148.865 9.34583C146.328 9.34583 144.192 11.4153 144.192 13.952C144.192 16.4219 146.328 18.4914 148.865 18.4914C151.335 18.4914 153.405 16.4219 153.405 13.952C153.405 11.3485 151.402 9.34583 148.865 9.34583ZM164.019 49.6663H174.433L183.378 21.9626H176.235L169.76 42.5901H168.625L168.558 42.4566L162.083 21.9626H155.007L164.019 49.6663ZM196.929 21.6956C190.053 21.6956 183.111 26.502 183.111 35.5808C183.111 43.7918 189.119 49.9333 197.129 49.9333C202.804 49.9333 207.543 46.729 209.613 41.5888H202.87C202.537 41.9893 200.868 43.9253 197.33 43.9253C194.259 43.9253 190.654 42.3899 189.786 37.984L189.72 37.7837H210.214C210.547 32.7771 209.346 28.6382 206.676 25.7677C204.406 23.1642 200.801 21.6956 196.929 21.6956ZM203.338 32.4433H190.254L190.32 32.243C191.455 29.239 193.992 27.5034 197.129 27.5034C199.332 27.5034 202.203 28.3044 203.271 32.3098L203.338 32.4433ZM226.235 21.6956C218.892 21.6956 213.351 27.7704 213.351 35.8478C213.351 43.9253 219.159 50 226.502 50C229.372 50 231.709 48.9987 233.511 47.0628L233.578 46.996H234.379L235.18 49.6663H240.387V10.2136H233.712V25.0334L233.445 24.6996C231.575 22.697 229.172 21.6956 226.235 21.6956ZM227.303 43.3912C223.898 43.3912 220.294 40.988 220.294 35.8478C220.294 30.7076 223.898 28.3044 227.303 28.3044C231.175 28.3044 233.645 31.3084 233.645 35.8478C233.645 40.3872 231.175 43.3912 227.303 43.3912ZM140.988 21.9626C136.515 21.9626 133.778 24.0321 132.51 25.3004L132.443 25.3672H131.575L130.507 22.0294H125.167V49.733H132.31V35.9813C132.31 30.5741 136.716 28.6382 140.521 28.6382C141.388 28.6382 142.256 28.705 142.79 28.8385V21.9626H140.988ZM120.694 21.9626C116.222 21.9626 113.485 24.0321 112.216 25.3004L112.15 25.3672H111.282L110.214 22.0294H104.873V49.733H112.016V35.9813C112.016 30.5741 116.422 28.6382 120.227 28.6382C121.095 28.6382 121.963 28.705 122.497 28.8385V21.9626H120.694Z" fill="white"/>
</g>
<defs>
<clipPath id="clip0_207_256">
<rect width="240.387" height="50" fill="white"/>
</clipPath>
</defs>
</svg>
