<svg width="144" height="50" viewBox="0 0 144 50" fill="none" xmlns="http://www.w3.org/2000/svg">
<g clip-path="url(#clip0_91_1145)">
<path d="M11.5958 38.0212C11.5958 35.7233 12.1596 33.5489 13.2735 31.6914L13.3543 31.5882L13.4426 31.4393L13.5745 31.2138L14.1107 30.4925C13.9042 30.5804 13.7028 30.6799 13.5075 30.7904L13.2277 30.9563C12.9809 31.1031 12.6745 31.1031 12.4298 30.9563L12.1532 30.7914C10.3309 29.7191 8.00856 29.7191 6.15325 30.8106C5.32665 31.2436 4.64793 31.867 4.16388 32.635L4.05218 32.7733C4.02085 32.8114 3.99572 32.8541 3.97771 32.8999L3.86601 33.0542C3.01282 34.517 2.55431 36.235 2.55431 37.9638C2.55431 43.534 7.15218 48.0702 12.7756 48.0702H12.9139H13.0266C14.0862 48.034 15.0692 47.8733 15.9671 47.5872C13.1884 45.1404 11.5447 41.6787 11.5969 38.018L11.5958 38.0212ZM13.1671 38.0319C13.1171 41.6276 14.9458 45.0233 17.9735 47.1648C18.4628 47.5106 18.4043 48.2563 17.8671 48.5223C16.4522 49.2223 14.8458 49.5936 13.0501 49.6542H12.7703C6.27665 49.6542 0.96814 44.4148 0.96814 37.9648C0.96814 35.9329 1.51282 33.9138 2.53197 32.1936L2.60856 32.0957C2.68942 31.9425 2.76069 31.834 2.86814 31.718C3.49899 30.7457 4.3575 29.9563 5.38091 29.4265C6.50797 28.7692 7.78701 28.4173 9.09169 28.4056C10.3964 28.3938 11.6815 28.7226 12.8203 29.3595C14.044 28.6914 15.4274 28.3709 16.8203 28.4329C17.6075 28.468 17.8586 29.518 17.1745 29.9116C16.2564 30.4382 15.4969 31.167 14.916 32.018C14.8724 32.1023 14.8251 32.1846 14.7745 32.2648C14.7235 32.3499 14.7032 32.384 14.6926 32.4053L14.5788 32.5627C13.6384 34.1531 13.1575 36.0265 13.1575 38.0329L13.1671 38.0319Z" fill="white"/>
<path d="M35.7787 37.9649C35.7787 36.333 35.3394 34.632 34.5904 33.2554C34.5638 33.2064 34.5426 33.1543 34.5266 33.1011L34.4883 33.0522C34.3042 32.7242 34.0906 32.4137 33.85 32.1245C31.9862 29.9798 28.8106 29.4117 26.3479 30.8479L26.0681 31.0139C25.9475 31.0861 25.8097 31.1242 25.6692 31.1242C25.5287 31.1242 25.3908 31.0861 25.2702 31.0139L24.9904 30.8479C24.0404 30.2841 22.916 30.0213 21.6926 30.0713C21.5862 30.0713 21.4606 30.0798 21.3224 30.099L20.8809 30.1703L20.4553 30.2532L20.1426 30.3415L19.5766 30.5883L19.0575 30.8511C18.2064 31.3532 17.5149 31.9894 17.0362 32.7479L16.9245 32.8862C16.8931 32.9242 16.868 32.967 16.85 33.0128L16.7468 33.1543C15.9225 34.6641 15.4874 36.3554 15.4809 38.0756C15.4765 39.6969 15.8657 41.2951 16.6149 42.733C17.466 44.3107 18.7053 45.6532 20.1734 46.5415C20.2784 46.5835 20.3801 46.6333 20.4777 46.6905L20.7096 46.8352L21.2458 47.1032C22.6052 47.7415 24.0886 48.0724 25.5904 48.0724H25.8585C31.3904 47.9128 35.7553 43.4575 35.7553 37.966L35.7787 37.9649ZM37.35 37.9649C37.35 44.3213 32.3075 49.4756 25.8926 49.6543H25.6128C23.8696 49.654 22.1482 49.2674 20.5724 48.5224C20.5596 48.516 20.1468 48.3011 20.1468 48.3096L20.1043 48.2969L19.9181 48.2064C19.8489 48.1596 19.7783 48.1149 19.7064 48.0724C19.6729 48.0519 19.6377 48.0344 19.6011 48.0203L19.4468 47.9501C17.6989 46.9118 16.2383 45.3437 15.2394 43.4883C14.3732 41.8186 13.9208 39.9652 13.9202 38.0841C13.926 36.0708 14.4409 34.0917 15.417 32.3309L15.5021 32.2203C15.5712 32.0807 15.6592 31.9515 15.7638 31.8362C16.3809 30.8873 17.2319 30.099 18.2883 29.483C18.4988 29.3647 18.7143 29.2554 18.9341 29.1554C19.1064 29.0766 19.2532 29.0171 19.5596 28.883C19.7298 28.816 19.9106 28.7639 20.1234 28.716C20.2479 28.6883 20.3787 28.6628 20.5872 28.6224L20.6117 28.6181L21.1117 28.5383C21.3245 28.5107 21.4989 28.4958 21.6575 28.4979C23.0851 28.4362 24.466 28.7469 25.6596 29.4235C28.7681 27.6862 32.6979 28.4171 35.0213 31.1011C35.2979 31.4203 35.5351 31.7692 35.7745 32.1649C35.9128 32.3117 35.9904 32.5054 35.9904 32.7096C35.9934 32.5897 35.9655 32.471 35.9096 32.3649C35.9745 32.4482 36.017 32.5467 36.033 32.6511C36.8786 34.2953 37.3236 36.1161 37.3319 37.9649H37.35ZM27.7926 32.449C27.5828 32.449 27.3816 32.3657 27.2333 32.2173C27.0849 32.069 27.0016 31.8678 27.0016 31.658C27.0016 31.4482 27.0849 31.2471 27.2333 31.0987C27.3816 30.9504 27.5828 30.8671 27.7926 30.8671C30.2394 30.8671 32.4798 32.1735 33.7266 34.2532C34.3117 35.2809 34.6128 36.4149 34.6128 37.633C34.6128 38.8511 34.3106 39.9862 33.7266 41.0128C33.5106 41.3926 33.0309 41.5235 32.6543 41.3064C32.2777 41.0894 32.1468 40.6064 32.3617 40.2266C32.8129 39.4364 33.0471 38.5409 33.0404 37.6309C33.0475 36.7275 32.8167 35.8382 32.3713 35.0522C31.4138 33.4564 29.683 32.4458 27.7915 32.4458L27.7926 32.449ZM21.8851 23.1298C22.5386 24.1403 23.2669 25.1005 24.0638 26.0022L25.0213 27.0298C25.3383 27.3277 25.3564 27.8277 25.0596 28.1469C24.7628 28.466 24.266 28.4841 23.9489 28.1862L23.6436 27.883L22.8745 27.049C22.0293 26.0841 21.2549 25.0595 20.5575 23.983C19.3234 22.0681 18.3787 20.1032 17.7915 18.0788C16.6192 19.9447 15.7064 21.7415 15.0287 23.4532C14.5585 24.6383 14.2383 25.6937 14.0394 26.6022L13.8617 27.6596C13.8551 27.7629 13.8282 27.8638 13.7825 27.9567C13.7368 28.0495 13.6733 28.1325 13.5955 28.2008C13.5177 28.269 13.4273 28.3213 13.3293 28.3546C13.2313 28.3879 13.1277 28.4015 13.0245 28.3947C12.5915 28.3649 12.2649 27.9873 12.2936 27.5511C12.3106 27.3064 12.3713 26.8703 12.5064 26.2618C12.7234 25.2681 13.0702 24.1309 13.5702 22.8649C14.4426 20.6628 15.6766 18.3383 17.3234 15.9203C17.1149 14.5235 17.0894 13.1086 17.2702 11.682C17.7277 8.10963 18.8872 5.31282 20.5447 3.20963C21.9011 1.52665 23.2585 0.595797 24.2085 0.218137C24.3764 0.152052 24.562 0.145667 24.7341 0.200052C25.0362 0.306435 25.433 0.519201 25.8234 0.889414C27.866 2.87665 27.0915 6.57771 22.1277 12.3171C20.9553 13.6724 19.917 15.0032 19.0032 16.3032C19.45 18.6437 20.4564 20.9256 21.8755 23.1309L21.8851 23.1298ZM20.9426 11.2788C25.4277 6.09261 26.017 3.27877 24.7319 2.02878C24.6489 1.94792 24.567 1.88303 24.4936 1.83303C24.2912 1.94547 24.0945 2.06796 23.9043 2.20005C23.1915 2.68941 22.4724 3.35112 21.7979 4.2075C20.3085 6.08303 19.2713 8.60963 18.8511 11.899C18.7628 12.5903 18.7283 13.2874 18.7479 13.9841C19.4234 13.0926 20.1543 12.1905 20.9426 11.2788ZM60.8511 46.8915C59.2787 46.8915 57.8723 46.5469 56.633 45.8564C55.3936 45.166 54.4202 44.1969 53.7149 42.9501C53.0096 41.7032 52.6564 40.2969 52.6564 38.7352C52.6564 37.1735 53.0096 35.7724 53.7149 34.5352C54.3991 33.3182 55.4098 32.3167 56.633 31.6437C57.8734 30.9543 59.2787 30.6086 60.8511 30.6086C62.2213 30.6086 63.4468 30.8777 64.5245 31.4149C65.5865 31.9374 66.4741 32.7566 67.0798 33.7735L65.4777 34.8692C64.9532 34.0777 64.2883 33.4841 63.4819 33.0883C62.6755 32.6926 61.7989 32.4947 60.8511 32.4947C59.7021 32.4947 58.6702 32.7532 57.7521 33.2713C56.8389 33.7846 56.0934 34.5508 55.6053 35.4777C55.0915 36.4309 54.834 37.5171 54.834 38.733C54.834 39.9703 55.0915 41.0735 55.6053 42.0043C56.0976 42.9243 56.8424 43.6846 57.7521 44.1958C58.6692 44.7139 59.7021 44.9724 60.8511 44.9724C61.8085 44.9724 62.6755 44.7809 63.4819 44.3937C64.2883 44.0064 64.9532 43.4203 65.4777 42.6277L67.0798 43.7234C66.4711 44.7432 65.5778 45.563 64.5096 46.082C63.4213 46.6192 62.2011 46.8883 60.85 46.8883L60.8511 46.8915ZM78.3872 30.6086C80.383 30.6086 81.9702 31.1915 83.1489 32.3586C84.3277 33.5256 84.9181 35.2245 84.9181 37.4564V46.7394H82.7713V37.6596C82.7713 35.9958 82.3585 34.7277 81.5319 33.8554C80.7053 32.983 79.5266 32.5469 77.9947 32.5469C76.2926 32.5469 74.9255 33.0596 73.9277 34.0841C72.9298 35.1086 72.4309 36.5235 72.4309 38.3394V46.7394H70.2872V24.1564H72.434V33.5181C73.0191 32.5852 73.8245 31.8649 74.8532 31.3586C75.8819 30.8522 77.0606 30.5979 78.3904 30.5979L78.3872 30.6086ZM103.904 39.4043H90.6043C90.7255 41.0681 91.3489 42.4118 92.5192 43.4469C93.6894 44.482 95.1191 44.9841 96.8734 44.9841C97.8606 44.9841 98.767 44.8064 99.5947 44.4522C100.419 44.0985 101.153 43.5628 101.741 42.8852L102.951 44.2852C102.246 45.1362 101.364 45.7745 100.305 46.232C99.2468 46.6894 98.0713 46.9022 96.8128 46.9022C95.1798 46.9022 93.734 46.5511 92.4745 45.8522C91.24 45.1773 90.2189 44.1706 89.5266 42.9458C88.8213 41.7086 88.4681 40.3075 88.4681 38.7458C88.4681 37.1841 88.8053 35.783 89.4809 34.5458C90.1564 33.3086 91.083 32.3437 92.2628 31.6543C93.4426 30.9649 94.767 30.6192 96.2383 30.6192C97.7096 30.6192 99.0298 30.9639 100.199 31.6543C101.368 32.3447 102.284 33.3032 102.95 34.5309C103.616 35.7586 103.948 37.1639 103.948 38.7458L103.918 39.416L103.904 39.4043ZM96.2234 32.4649C94.6915 32.4649 93.4064 32.9575 92.3681 33.9415C91.3298 34.9256 90.7404 36.2075 90.5989 37.7926H101.876C101.734 36.2096 101.145 34.9266 100.106 33.9415C99.0681 32.9564 97.7734 32.4649 96.2213 32.4649H96.2234ZM109.628 33.8649C110.132 32.8011 110.883 31.9777 111.88 31.4181C112.877 30.8586 114.112 30.5969 115.584 30.5969V32.6969L115.07 32.6649C113.397 32.6649 112.087 33.182 111.139 34.2181C110.191 35.2543 109.718 36.7032 109.718 38.5798V46.7362H107.571V30.7309H109.628V33.8649ZM120.755 33.8649C121.26 32.8011 122.011 31.9777 123.007 31.4181C124.004 30.8586 125.239 30.5969 126.712 30.5969V32.6969L126.198 32.6649C124.524 32.6649 123.215 33.182 122.267 34.2181C121.319 35.2543 120.846 36.7032 120.846 38.5798V46.7362H118.699V30.7309H120.755V33.8649ZM143.521 39.4043H130.223C130.345 41.0681 130.968 42.4118 132.138 43.4469C133.309 44.482 134.738 44.9841 136.493 44.9841C137.48 44.9841 138.386 44.8064 139.214 44.4522C140.038 44.0985 140.772 43.5628 141.361 42.8852L142.57 44.2852C141.865 45.1362 140.983 45.7745 139.924 46.232C138.866 46.6894 137.69 46.9022 136.432 46.9022C134.799 46.9022 133.353 46.5511 132.094 45.8522C130.859 45.1773 129.838 44.1706 129.146 42.9458C128.44 41.7086 128.087 40.3075 128.087 38.7458C128.087 37.1841 128.424 35.783 129.1 34.5458C129.776 33.3086 130.702 32.3437 131.882 31.6543C133.062 30.9649 134.386 30.6192 135.857 30.6192C137.329 30.6192 138.649 30.9639 139.818 31.6543C140.987 32.3447 141.903 33.3032 142.569 34.5309C143.235 35.7586 143.567 37.1639 143.567 38.7458L143.537 39.416L143.521 39.4043ZM135.84 32.4649C134.309 32.4649 133.023 32.9575 131.985 33.9415C130.947 34.9256 130.357 36.2075 130.216 37.7926H141.489C141.348 36.2096 140.759 34.9266 139.72 33.9415C138.682 32.9564 137.387 32.4649 135.835 32.4649H135.84Z" fill="white"/>
</g>
<defs>
<clipPath id="clip0_91_1145">
<rect width="143.617" height="50" fill="white"/>
</clipPath>
</defs>
</svg>
