<svg width="250" height="71" viewBox="0 0 250 71" fill="none" xmlns="http://www.w3.org/2000/svg">
<g clip-path="url(#clip0_270_269)">
<path d="M241.159 22.8834H239.677V22.2115H243.407V22.8834H241.9V26.9843H241.137V22.8834H241.159ZM244.821 22.1885L246.35 25.8723L247.878 22.1885H248.759V26.9613H248.042V23.6018L246.628 26.9613H246.027L244.635 23.6018V26.9613H243.918V22.1885H244.821Z" fill="white"/>
<path d="M237.035 22.1885L224.688 55.3429C223.807 57.6829 221.56 59.2584 219.057 59.2584H212.732V54.3234H219.683L221.721 48.902L211.226 22.2115H216.995L224.316 42.461L231.476 22.2115H237.035V22.1885Z" fill="white"/>
<path d="M65.9351 35.6496C65.9351 27.4013 71.3795 21.7946 79.2107 21.7946C85.582 21.7946 90.4244 25.2699 91.351 31.9192H85.7906C85.2114 28.8611 82.6165 26.7294 79.3034 26.7294C74.6928 26.7294 71.6809 30.2511 71.6809 35.6496C71.6809 41.094 74.739 44.6157 79.3034 44.6157C82.6859 44.6157 85.1649 42.6465 85.7906 39.2175H91.351C90.2623 46.2144 85.5357 49.5507 79.2107 49.5507C71.3795 49.5507 65.9351 43.9438 65.9351 35.6496Z" fill="white"/>
<path d="M94.2007 35.6496C94.2007 27.6562 99.8075 21.7946 107.754 21.7946C115.539 21.7946 121.308 27.61 121.308 35.6496C121.308 43.7354 115.539 49.5507 107.754 49.5507C99.8075 49.5507 94.2007 43.6889 94.2007 35.6496ZM115.493 35.6496C115.493 30.4133 112.272 26.7294 107.754 26.7294C103.028 26.7294 99.9697 30.4597 99.9697 35.6496C99.9697 40.8856 103.028 44.6157 107.754 44.6157C112.319 44.6157 115.493 40.8856 115.493 35.6496Z" fill="white"/>
<path d="M127.378 45.7279V26.9843H122.605V22.2115H127.378V14.1721H133.263L130.993 22.2115H139.588V26.9843H133.055V44.2219H139.588V49.1569H130.807C128.884 49.1337 127.378 47.6047 127.378 45.7279Z" fill="white"/>
<path d="M197.325 45.728V26.9844H192.552V22.2116H197.325V14.1721H203.209L200.939 22.2116H209.535V26.9844H203.001V44.222H209.535V49.1569H200.754C198.854 49.1337 197.325 47.6047 197.325 45.728Z" fill="white"/>
<path d="M142.206 41.8124C142.206 37.1323 145.589 34.2363 151.451 33.4485L157.22 32.6606C158.772 32.4522 159.56 31.7338 159.56 30.4365C159.56 28.0965 157.428 26.2894 153.907 26.2894C150.64 26.2894 148.253 27.9575 147.999 30.9695H142.438C143.064 25.3626 147.373 21.7946 153.907 21.7946C160.811 21.7946 165.213 25.7332 165.213 31.7571V44.4768H167.854V49.1569C167.854 49.1569 165.352 49.1569 164.263 49.1569C161.459 49.1569 160.232 47.6741 160.232 45.2181C158.934 47.9058 155.551 49.5739 151.52 49.5739C146.052 49.5507 142.206 46.3765 142.206 41.8124ZM159.699 37.2945V36.2982L152.377 37.5029C149.365 37.9664 147.859 39.3102 147.859 41.6038C147.859 43.6889 149.667 45.1254 152.377 45.1254C156.988 45.1254 159.699 41.9281 159.699 37.2945Z" fill="white"/>
<path d="M171.584 11.554H177.238V49.1336H171.584V11.554Z" fill="white"/>
<path d="M183.099 11.554H189.424V17.9254H183.099V11.554ZM183.424 22.1885H189.077V49.1104H183.424V22.1885Z" fill="white"/>
<path d="M2.42934 36.5761C3.49509 34.3288 4.88522 32.2206 6.6692 30.3438L8.40686 32.4985L2.42934 36.5761ZM12.6467 31.7571L10.2835 32.985L14.4076 37.1323C13.5735 35.4642 12.9943 33.6569 12.6467 31.7571ZM22.7947 16.7438L20.501 14.6122L17.3037 20.2654L22.7947 16.7438ZM31.5757 15.0988L30.0232 11.9015L24.3469 16.5584L31.5757 15.0988ZM40.1712 15.4695L39.4761 11.9942L32.8035 15.0524L40.1712 15.4695ZM48.5814 17.2766L48.4887 13.7318L41.3991 15.6317L48.5814 17.2766ZM27.1735 11.2064L25.4823 8.91272L21.6826 13.4075L27.1735 11.2064ZM34.2633 8.79688L33.4987 6.06296L28.3551 8.91272L34.2633 8.79688ZM42.071 9.28343L42.3491 6.45684L36.5336 7.26774L42.071 9.28343ZM50.3887 10.8821L51.1763 8.14816L45.3146 7.84697L50.3887 10.8821ZM58.6367 13.5465L59.5867 10.8821L53.748 10.2333L58.6367 13.5465ZM33.7303 59.5365L34.6571 62.7106L40.6115 59.3279L33.7303 59.5365ZM25.3664 60.0925L25.3431 63.6374L32.5024 61.9923L25.3664 60.0925ZM17.5817 57.9841L16.2842 61.5058L23.5823 61.8301L17.5817 57.9841ZM11.6042 53.165L9.10192 55.6673L15.3575 59.5133L11.6042 53.165ZM9.88967 45.4035L6.39119 46.006L9.28728 52.7712L9.88967 45.4035ZM10.7006 36.5299L7.15575 36.2518L8.31418 43.5038L10.7006 36.5299ZM42.1175 53.281L43.2527 55.621L47.4462 52.192L42.1175 53.281ZM34.4254 54.3929L35.0277 57.1732L40.3334 54.6246L34.4254 54.3929ZM26.2699 53.9991L26.0845 56.8257L31.8768 55.8294L26.2699 53.9991ZM18.9718 50.8018L18.0219 53.4662L23.8604 54.115L18.9718 50.8018ZM14.4771 44.6157L12.1834 46.2839L16.6318 50.1299L14.4771 44.6157ZM20.501 44.4303L19.6205 46.7704L25.042 47.1412C23.3971 46.3998 21.8679 45.473 20.501 44.4303ZM15.01 38.2445L13.2723 40.4454L18.717 42.9013C17.2342 41.5343 16.0062 39.9589 15.01 38.2445ZM35.6996 49.5274L36.4412 51.8907L40.8431 49.2728C39.0823 49.5044 37.3677 49.5971 35.6996 49.5274ZM27.6832 50.6396L32.7341 49.2958C30.95 49.0642 29.2356 48.6704 27.6137 48.1374L27.6832 50.6396ZM44.1562 48.6704L45.4305 50.7555L49.0679 47.1874C47.3998 47.8131 45.7781 48.2996 44.1562 48.6704ZM17.8365 11.2296L22.3777 9.49195L21.0338 7.61529C19.8754 8.72739 18.7865 9.93215 17.8365 11.2296ZM36.3947 2.81936L36.4179 0.456133C34.7498 0.710989 33.1511 1.08169 31.6451 1.54507L36.3947 2.81936ZM28.6332 5.25206L27.9381 2.98153C26.4321 3.69976 25.0188 4.51066 23.6982 5.46058L28.6332 5.25206ZM17.8365 15.6085L15.9599 14.1952C15.1953 15.6085 14.5234 17.0913 13.9905 18.6436L17.8365 15.6085ZM40.4029 0.0390983L44.7354 2.40232L45.3146 0.108602C43.6235 -0.00724215 41.9783 -0.0304082 40.4029 0.0390983ZM62.2279 4.09363C60.6292 3.49124 59.077 2.95836 57.5478 2.49498L61.3476 6.38732L62.2279 4.09363ZM49.2301 0.571976L53.0066 3.67659L54.0029 1.5219C52.3812 1.12803 50.7825 0.803664 49.2301 0.571976ZM57.2697 17.1608L49.7631 17.6473L56.0186 20.4739L57.2697 17.1608ZM18.9718 23.1153L13.5967 19.8947C13.0406 21.7714 12.6467 23.7175 12.4382 25.7332C14.5466 24.598 16.7476 23.7407 18.9718 23.1153ZM54.3272 50.3847C55.7175 47.929 57.0148 45.2876 58.1732 42.5073C55.8797 44.0365 53.5858 45.2876 51.2923 46.2839L54.3272 50.3847ZM28.2162 21.8177C31.0659 21.7714 33.9387 22.0262 36.8117 22.5361L35.9544 17.9949L28.2162 21.8177ZM19.5047 22.9761C22.169 22.2812 24.9031 21.9104 27.6602 21.8409L25.8529 17.7632L19.5047 22.9761ZM45.9403 24.8761C48.4192 25.7102 50.852 26.7064 53.2153 27.7954L54.8602 23.4396L45.9403 24.8761ZM37.3447 22.6285C40.0785 23.1383 42.7894 23.8566 45.4538 24.7369L45.3146 20.1727L37.3447 22.6285ZM5.27907 54.6246L1.47941 55.9454C2.47566 58.6792 3.98164 61.2277 5.97414 63.4055L5.27907 54.6246ZM14.1295 68.9662L9.51896 61.2277L6.69237 64.1239C8.70805 66.1396 11.2103 67.8077 14.1295 68.9662ZM4.0048 46.7704L0.0197802 46.4692C-0.0960635 49.3885 0.297805 52.2847 1.17822 55.0418L4.0048 46.7704ZM5.1169 39.1942L2.03546 37.4334C0.900188 40.0748 0.251462 42.8549 0.0661135 45.6584L5.1169 39.1942ZM49.1839 57.9378C50.9215 55.8062 52.5434 53.4431 54.0261 50.8945L46.9133 54.5321L49.1839 57.9378ZM16.4696 65.3285L14.8478 69.2443C17.4658 70.1708 20.4083 70.727 23.6982 70.7732L16.4696 65.3285ZM24.8334 66.5334L24.5323 70.7965C27.6137 70.7502 30.533 70.2635 33.3133 69.3832L24.8334 66.5334ZM32.9195 65.0969L34.0314 69.1051C36.8117 68.1321 39.4299 66.7188 41.8626 64.9347L32.9195 65.0969ZM40.7737 60.8339L42.4648 64.4945C44.7124 62.7801 46.8206 60.7412 48.7668 58.4476L40.7737 60.8339ZM12.4151 30.0889C12.276 28.6757 12.276 27.2392 12.4382 25.7332C10.8396 26.66 9.40312 27.7257 8.10566 28.8843L12.4151 30.0889Z" fill="white"/>
</g>
<defs>
<clipPath id="clip0_270_269">
<rect width="250" height="70.7965" fill="white"/>
</clipPath>
</defs>
</svg>
