<svg width="213" height="46" viewBox="0 0 213 46" fill="none" xmlns="http://www.w3.org/2000/svg">
<g clip-path="url(#clip0_91_1118)">
<path d="M53.4258 36.7591C51.3418 36.7591 49.5972 36.3544 48.1939 35.5493C46.7907 34.742 45.6158 33.5052 44.6716 31.836L48.8409 28.7463C49.3403 29.6645 49.9244 30.3466 50.5915 30.7918C51.2588 31.2371 51.9387 31.4604 52.6336 31.4604C53.7447 31.4604 54.5865 31.1186 55.1562 30.4365C55.7261 29.7545 56.0106 28.5109 56.0106 26.7022V9.04999H62.1381V27.2021C62.1381 28.5102 61.9651 29.7477 61.6177 30.917C61.2703 32.0848 60.7416 33.102 60.0333 33.9632C59.3249 34.826 58.4211 35.5066 57.3233 36.0073C56.2256 36.5088 54.9272 36.7591 53.4258 36.7591Z" fill="white"/>
<path d="M65.9106 36.2577V9.04999H72.0396V31.0849H82.7946V36.2584L65.9106 36.2577Z" fill="white"/>
<path d="M86.5646 36.2577V9.04999H92.6935V31.0849H103.449V36.2584L86.5646 36.2577Z" fill="white"/>
<path d="M107.158 40.648L115.538 4.34369H119.54L111.16 40.648H107.158Z" fill="white"/>
<path d="M40.6202 16.8742C40.1522 13.8392 39.2446 10.7405 37.8234 7.95513C36.6598 5.67421 35.1105 3.50871 33.0476 1.96311C31.5089 0.80953 29.5784 0.0494718 27.6427 0.00149974C26.4229 0.0322319 25.2061 0.345549 24.0875 0.861249C23.3514 0.521696 22.5726 0.275841 21.7782 0.134173C21.5872 0.100442 21.3955 0.0689607 21.2031 0.047973C20.9799 0.0239869 20.756 0.0067471 20.5329 0.000750582C19.3131 0.0314827 18.0963 0.3448 16.9776 0.860499C15.8588 0.3448 14.6421 0.0307332 13.423 0.000750582L13.4215 0C11.4858 0.0479722 9.55546 0.808029 8.01668 1.9616C5.95299 3.50721 4.40372 5.6727 3.24008 7.95362C1.81886 10.7398 0.911317 13.8385 0.443316 16.8735C0.138554 18.8508 -0.00147142 20.8327 0.000774981 22.7799C-0.00147142 24.7282 0.137805 26.7092 0.442567 28.6865C0.911317 31.7215 1.81886 34.8195 3.23933 37.6057C4.40297 39.8873 5.95225 42.052 8.01593 43.5977C9.55472 44.7512 11.4851 45.5113 13.4208 45.5592C14.6413 45.5285 15.8581 45.2152 16.9768 44.6988C17.7129 45.0383 18.4917 45.2849 19.2862 45.4265C19.4771 45.4604 19.6688 45.4918 19.8612 45.5127C20.0843 45.5367 20.3082 45.5548 20.5322 45.5607C21.752 45.5299 22.9687 45.2159 24.0875 44.7003C25.2062 45.2167 26.4237 45.5307 27.6427 45.5615H27.6442C29.5799 45.5135 31.5103 44.7535 33.0491 43.5998C35.1128 42.0543 36.6621 39.8887 37.8257 37.6078C39.2469 34.8217 40.1545 31.723 40.6224 28.688C40.9272 26.7107 41.0672 24.7288 41.065 22.7815C41.0644 20.8333 40.9249 18.8515 40.6202 16.8742ZM37.0776 25.7236C36.7189 30.9262 35.3112 36.1485 32.3782 40.5079C31.1165 42.3871 29.5237 44.1868 27.6405 45.5C26.9314 45.0045 26.2484 44.4274 25.624 43.8158C25.7273 43.7438 25.8344 43.6748 25.9347 43.5992C27.9985 42.0528 29.547 39.8881 30.7113 37.6071C32.1326 34.8217 33.0394 31.7223 33.5081 28.688C33.8129 26.7107 33.9529 24.7288 33.9506 22.7815C33.9529 20.8333 33.8136 18.8523 33.5089 16.875C33.0409 13.84 32.1326 10.742 30.7121 7.95587C29.6375 5.84884 28.2283 3.84751 26.3945 2.33489C25.8052 2.96602 25.2586 3.63689 24.7569 4.32498C24.9328 4.56634 25.1036 4.80995 25.2691 5.05506C28.2013 9.41527 29.6084 14.6367 29.9671 19.8394C30.0337 20.8147 30.0658 21.7973 30.0666 22.7807C30.0658 23.7649 30.0337 24.7468 29.9671 25.7228C29.6084 30.9255 28.2006 36.1477 25.2683 40.5071C24.9021 41.0522 24.5061 41.5873 24.086 42.1083C23.606 42.7034 23.0946 43.2776 22.5471 43.815C21.9646 44.3862 21.3424 44.9124 20.6864 45.3838C20.6347 45.4206 20.5846 45.461 20.5329 45.4978C20.5014 45.4761 20.4625 45.4483 20.4348 45.4281C20.2401 45.2902 20.0476 45.1485 19.8597 45.0009C19.391 44.632 18.9424 44.2347 18.5148 43.815C18.6181 43.743 18.7245 43.6748 18.8249 43.5992C19.4404 43.1389 20.0042 42.618 20.5307 42.0603C20.9223 42.4741 21.3378 42.8653 21.7782 43.2281C22.3674 42.5969 22.9133 41.9261 23.415 41.2373C23.2391 40.9959 23.0684 40.7523 22.9035 40.5071C22.7231 40.2389 22.5651 39.957 22.3959 39.6819C22.8354 39.0102 23.2398 38.3147 23.6014 37.6063C25.0227 34.8209 25.9302 31.7215 26.3982 28.6873C26.703 26.71 26.8423 24.7282 26.8407 22.7807C26.843 20.8327 26.703 18.8515 26.3982 16.8742C25.9302 13.8392 25.0219 10.7412 23.6014 7.95513C23.4367 7.63206 23.2615 7.31199 23.081 6.99493C22.3233 8.38387 21.7063 9.84177 21.2023 11.3409C22.1233 14.082 22.658 16.9619 22.8564 19.8402C22.923 20.8153 22.9492 21.7981 22.95 22.7822H22.9463C22.9456 23.7665 22.9223 24.7491 22.8557 25.7242C22.6138 29.239 21.877 32.7567 20.5307 36.0181C20.0072 37.2863 19.3864 38.5111 18.6654 39.6834C18.4961 39.9585 18.3388 40.2404 18.1577 40.5087C17.7915 41.0536 17.3954 41.5888 16.9753 42.1098C16.4953 42.7049 15.9839 43.2798 15.4358 43.8165C14.8533 44.3877 14.2317 44.9146 13.575 45.3854C13.5227 45.4229 13.4724 45.4641 13.4192 45.5008C11.5398 44.1876 9.9426 42.3856 8.68162 40.5087C5.74931 36.1492 4.34158 30.927 3.98365 25.7242C3.917 24.7491 3.8848 23.7665 3.88405 22.7822C3.8848 21.7981 3.917 20.8161 3.98365 19.8402C4.34232 14.6375 5.75007 9.41527 8.68311 5.05581C9.9426 3.17965 11.5428 1.37695 13.4215 0.0644628C14.1359 0.562922 14.8083 1.13184 15.4373 1.74798C15.334 1.81994 15.2269 1.8889 15.1265 1.96386C13.0628 3.50945 11.5136 5.67495 10.3507 7.95587C8.92947 10.742 8.02267 13.8407 7.55393 16.875C7.24916 18.8523 7.10914 20.8341 7.11139 22.7815C7.10914 24.7296 7.24841 26.7107 7.55317 28.688C8.02192 31.723 8.92947 34.8217 10.3499 37.6078C11.4244 39.7149 12.8338 41.7162 14.6675 43.2289C15.2568 42.5969 15.8035 41.9268 16.3052 41.2381C16.1292 40.9967 15.9585 40.753 15.793 40.5079C12.8606 36.1485 11.4537 30.9262 11.095 25.7236C11.0276 24.7483 10.9962 23.7657 10.9954 22.7822C10.9962 21.7981 11.0284 20.8161 11.095 19.8402C11.4537 14.6375 12.8614 9.41527 15.7938 5.05581C16.1599 4.51087 16.556 3.97568 16.9761 3.45473C17.4561 2.85959 17.9675 2.28542 18.5148 1.74798C19.0974 1.17682 19.7197 0.650622 20.3757 0.179146C20.4281 0.141668 20.479 0.100442 20.5314 0.0637136C20.5636 0.0876997 20.6018 0.116931 20.6273 0.135671C20.8211 0.273591 21.0143 0.41526 21.2023 0.562924C21.6711 0.931709 22.1189 1.32898 22.5471 1.74873C22.4438 1.82069 22.3368 1.88965 22.2364 1.96461C21.6217 2.42484 21.0578 2.94579 20.5307 3.50271C20.139 3.08896 19.7235 2.69843 19.2831 2.33564C18.6939 2.96677 18.1479 3.63763 17.6463 4.32649C17.8222 4.56785 17.9929 4.81145 18.1577 5.05656C18.3382 5.3249 18.4953 5.60674 18.6646 5.88108C18.2251 6.55269 17.8207 7.24754 17.4591 7.95587C16.0379 10.742 15.1303 13.8407 14.6623 16.875C14.3576 18.8523 14.2183 20.8341 14.2197 22.7815C14.2175 24.7296 14.3576 26.7107 14.6623 28.688C15.1303 31.723 16.0386 34.8217 17.4591 37.6078C17.6238 37.931 17.7991 38.251 17.9795 38.568C18.7365 37.1791 19.3543 35.7212 19.8582 34.2228C18.9372 31.4817 18.4025 28.6026 18.2041 25.7236C18.1367 24.7483 18.1113 23.7657 18.1098 22.7815H18.1135C18.1142 21.7973 18.1375 20.8147 18.2041 19.8394C18.446 16.324 19.1828 12.807 20.5291 9.54645C21.0526 8.27818 21.6726 7.0534 22.3944 5.88033C22.5637 5.60524 22.7208 5.32416 22.9014 5.05506C23.2675 4.51013 23.6636 3.97493 24.0837 3.45399C24.5637 2.85884 25.0751 2.28392 25.6232 1.74724C26.2058 1.17607 26.8281 0.649872 27.4839 0.178397C27.5365 0.140918 27.5866 0.0996917 27.6398 0.0629631C29.517 1.3762 31.1179 3.1804 32.3782 5.05506C35.3105 9.41452 36.7182 14.6367 37.0769 19.8394C37.1436 20.8147 37.1757 21.7973 37.1765 22.7815C37.1765 23.7657 37.1442 24.7476 37.0776 25.7236Z" fill="white"/>
<path fill-rule="evenodd" clip-rule="evenodd" d="M199.781 25.7329H199.703V8.08673H196.28V36.0529H199.703V28.8842L201.474 26.9143L208.045 36.0523H212.255L203.874 24.826L211.232 16.9878H207.062L201.474 23.566C200.923 24.2361 200.254 25.0628 199.781 25.7329ZM122.141 31.8786C123.676 32.8238 125.919 33.6108 128.28 33.6108C131.781 33.6108 133.827 31.7594 133.827 29.082C133.827 26.5994 132.411 25.182 128.83 23.8028C124.501 22.2669 121.826 20.0212 121.826 16.2802C121.826 12.1441 125.249 9.07161 130.404 9.07161C133.119 9.07161 135.086 9.70125 136.268 10.3714L135.323 13.168C134.458 12.695 132.688 11.9072 130.287 11.9072C126.667 11.9072 125.29 14.0742 125.29 15.8859C125.29 18.3677 126.902 19.5887 130.562 21.0061C135.049 22.7392 137.33 24.9062 137.33 28.8062C137.33 32.9025 134.3 36.4472 128.044 36.4472C125.487 36.4472 122.693 35.6992 121.277 34.7532L122.141 31.8786ZM141.896 23.2121C141.896 20.77 141.817 18.801 141.738 16.9885H144.847L145.004 20.2581H145.083C146.5 17.9345 148.743 16.556 151.851 16.556C156.455 16.556 159.919 20.4553 159.919 26.2456C159.919 33.0996 155.747 36.4862 151.262 36.4862C148.743 36.4862 146.538 35.3835 145.398 33.4924H145.32V43.8514H141.896V23.2121ZM145.32 28.2935C145.32 28.8062 145.398 29.2791 145.477 29.7116C146.105 32.1139 148.192 33.7683 150.671 33.7683C154.33 33.7683 156.455 30.776 156.455 26.403C156.455 22.5826 154.449 19.313 150.789 19.313C148.427 19.313 146.224 21.0061 145.555 23.6064C145.437 24.0389 145.321 24.5516 145.321 25.0239L145.32 28.2935ZM174.556 33.6513L174.832 36.0537H177.98C177.745 34.754 177.666 33.1386 177.666 31.4844V24.3552C177.666 20.534 176.25 16.556 170.425 16.556C168.025 16.556 165.744 17.2253 164.168 18.2493L164.957 20.534C166.295 19.6682 168.144 19.1166 169.915 19.1166C173.81 19.1166 174.242 21.9521 174.242 23.5277V23.922C166.884 23.883 162.791 26.4038 162.791 31.0121C162.791 33.7691 164.759 36.4869 168.615 36.4869C171.331 36.4869 173.376 35.1482 174.438 33.6513H174.556ZM166.254 30.6171C166.254 26.915 170.542 26.2449 174.322 26.3236V29.6329C174.322 29.9874 174.241 30.381 174.125 30.7356C173.573 32.3508 172 33.9265 169.52 33.9265C167.749 33.9265 166.254 32.862 166.254 30.6171ZM183.253 22.9364C183.253 20.6914 183.214 18.7605 183.096 16.9885H186.124L186.243 20.7304H186.4C187.267 18.1698 189.352 16.5552 191.674 16.5552C192.068 16.5552 192.344 16.5943 192.657 16.6729V19.9425C192.304 19.8638 191.949 19.8248 191.477 19.8248C189.038 19.8248 187.307 21.6763 186.834 24.2757C186.755 24.7488 186.676 25.2997 186.676 25.8911V36.0537H183.253V22.9364Z" fill="white"/>
</g>
<defs>
<clipPath id="clip0_91_1118">
<rect width="213" height="45.5615" fill="white"/>
</clipPath>
</defs>
</svg>
