<svg width="108" height="50" viewBox="0 0 108 50" fill="none" xmlns="http://www.w3.org/2000/svg">
<g clip-path="url(#clip0_207_263)">
<path d="M61.4245 4.34864C61.4299 3.15041 61.9741 2.01746 62.9012 1.25905L63.1982 1.01604C64.855 -0.33913 67.2469 -0.300911 68.8595 1.1065C70.1013 2.19035 70.8281 3.7445 70.8321 5.39337C70.838 8.02758 70.6596 12.5407 70.457 18.307C70.1258 27.7296 69.8092 31.9599 69.8092 35.6551C69.8092 36.5117 69.8726 37.316 69.9832 38.0675C70.681 42.8029 76.4662 42.4863 76.8308 37.7136C76.8796 37.0749 76.8837 36.416 76.8299 35.7431C75.8539 23.5491 85.6168 12.7401 95.6205 19.5039C95.913 19.7016 96.3203 19.6182 96.537 19.3396C98.3749 16.9783 102.163 16.9641 103.584 19.2187C104.189 20.1787 103.77 21.55 103.494 23.3265C102.523 29.5789 102.279 32.2 101.903 36.1628C101.528 40.1255 101.754 42.2494 103.528 42.2494C105.302 42.2494 105.316 40.1394 106.697 40.7074C107.974 41.2328 107.355 43.3904 106.616 45.5386C105.877 47.6867 104.346 49.8357 101.216 49.8357C98.9778 49.8357 97.4969 47.0994 96.834 45.538C96.6676 45.1462 96.0915 45.0971 95.8848 45.4692C92.8882 50.864 85.3863 51.5071 81.5162 46.7012L80.7397 45.7369C80.5376 45.4859 80.1462 45.5175 79.987 45.7978C77.0539 50.9617 69.7856 51.4085 66.2429 46.6427L65.5761 45.7456C65.3783 45.4797 64.9809 45.4778 64.7808 45.7421L64.5471 46.0506C60.5245 51.362 53.8308 51.2468 49.9622 45.822C49.7472 45.5205 49.3 45.5163 49.0767 45.8118C44.9232 51.3063 36.6576 51.3834 32.4512 45.9294C32.193 45.5947 31.6576 45.6286 31.4067 45.9688C30.4408 47.2792 28.0168 49.8357 23.809 49.8357C18.1515 49.8357 18.6264 47.9837 15.2493 47.9837C11.8721 47.9837 10.9348 49.8357 5.53796 49.8357C-0.640031 49.8357 -0.388472 44.3434 0.419051 38.8466C1.81408 27.8745 1.52267 15.858 1.06516 4.63165C0.964264 3.27593 1.53663 1.95068 2.60949 1.11659L2.85775 0.923574C4.53577 -0.381012 6.90687 -0.295028 8.48611 1.12768C9.67724 2.20074 10.3747 3.71567 10.3961 5.31929C10.5336 15.6292 10.0924 31.9252 9.52875 36.3596C8.96512 40.7939 10.0681 41.9625 13.2643 40.7939C16.4605 39.6252 19.0325 39.6102 22.4536 40.7939C25.8746 41.9777 28.4147 40.9354 28.4147 35.6551C28.4147 33.3837 28.4931 30.6778 28.3815 27.7296C28.4968 25.5356 28.3165 23.3332 28.1364 21.8242C27.9923 20.6159 28.3917 19.3882 29.278 18.5551C30.9194 17.0121 33.4879 17.0166 35.1388 18.5494C36.2987 19.6264 36.977 21.1411 36.9098 22.723C36.852 24.0827 36.7345 25.8676 36.4961 27.7296C36.3848 30.6617 36.1112 33.3554 36.1112 35.6551C36.1112 36.8216 36.3327 37.9325 36.6794 38.9568C38.0509 43.0085 43.4808 42.9392 44.7961 38.8689C45.1206 37.8646 45.327 36.7826 45.327 35.6551C45.327 33.3837 45.4054 30.6778 45.2937 27.7296C45.4124 25.4704 45.2178 23.2022 45.0327 21.6915C44.8942 20.5615 45.2535 19.4133 46.0638 18.6143C47.6458 17.0544 50.2083 17.0614 51.8149 18.5958C52.9071 19.6391 53.5497 21.0971 53.485 22.6066C53.4259 23.9838 53.3048 25.8217 53.0573 27.7296C52.9528 30.4146 52.6879 30.5475 52.6879 36.3596C52.6879 36.4373 52.6888 36.5153 52.6907 36.5936C52.8443 43.3124 61.3395 43.2899 61.4946 36.5713C61.4962 36.5003 61.4971 36.4297 61.4971 36.3596C61.4971 30.1305 61.6034 25.2942 61.6034 18.307C61.6034 11.3199 61.4032 9.033 61.4245 4.34864ZM84.2456 33.5264C84.2456 39.1047 86.3274 41.4356 89.6144 41.4356C92.9015 41.4356 94.1146 37.8601 94.5449 32.7948C94.9752 27.7296 93.4493 24.5612 90.3813 24.5612C87.3136 24.5612 84.2456 27.9482 84.2456 33.5264Z" fill="white"/>
</g>
<defs>
<clipPath id="clip0_207_263">
<rect width="107.434" height="50" fill="white"/>
</clipPath>
</defs>
</svg>
