<svg width="125" height="77" viewBox="0 0 125 77" fill="none" xmlns="http://www.w3.org/2000/svg">
<g clip-path="url(#clip0_91_1128)">
<path d="M33.0846 14.3035V20.3358H38.9303V50.0622L12.7488 14.3035H0V20.3358H5.78358V56.1567H0V62.189H19.0299V56.1567H13.1841V26.8657L39.2413 62.189H46.3308V20.3358H52.2388V14.3035H33.0846Z" fill="white"/>
<path d="M105.1 14.3035V19.9627H110.323L100.933 32.6492L91.4179 19.9627H96.5796V14.3035H77.5498V20.3358H82.9602L96.5174 37.7487L82.0896 56.1567H76.4926V62.189H95.7712V56.4677H90.5473L100.933 42.7239L111.443 56.4677H105.784V62.189H125V56.1567H119.59L105.286 37.7487L118.968 20.3358H124.254V14.3035H105.1Z" fill="white"/>
<path d="M75.8706 5.34826C77.3631 5.34826 78.6691 5.78358 79.291 6.09453C80.0373 4.47761 80.7835 2.73632 81.4676 1.1194C80.4104 0.559702 77.9228 0 75.5597 0C67.9726 0 63.184 4.72637 62.1268 12.6244L59.1417 35.1368H53.6691L51.7412 41.2935H57.5248H58.3333L55.286 64.3657C54.7263 68.7811 52.3631 71.1443 48.5074 71.1443C47.0771 71.1443 45.8333 70.8333 44.9626 70.4602C44.2786 72.0771 43.6567 73.8184 42.9104 75.4975C44.092 76.0572 46.7661 76.4304 48.6318 76.4304C55.9701 76.4304 61.0696 72.0149 62.1268 63.806L65.1119 41.2935H70.6467L72.5746 35.1368H66.0447L69.092 12.0647C69.6517 7.77363 71.9527 5.34826 75.8706 5.34826Z" fill="white"/>
</g>
<defs>
<clipPath id="clip0_91_1128">
<rect width="125" height="76.4925" fill="white"/>
</clipPath>
</defs>
</svg>
