<svg width="200" height="52" viewBox="0 0 200 52" fill="none" xmlns="http://www.w3.org/2000/svg">
<path fill-rule="evenodd" clip-rule="evenodd" d="M62.6284 34.9261C62.5266 35.1329 62.4754 35.2357 62.4754 35.3909C62.4754 35.546 62.5772 35.7005 62.7814 35.7005H69.5716C70.0307 35.7005 70.0819 35.7522 70.0819 36.217V40.5543C70.0819 41.0191 70.0307 41.0708 69.5716 41.0708H53.7968C53.5414 41.0708 53.4396 40.9674 53.4396 40.8122C53.4396 40.7094 53.4902 40.606 53.5414 40.5026L61.5563 25.322C61.6586 25.1157 61.7098 24.9606 61.7098 24.8061C61.7098 24.6509 61.6074 24.5475 61.4032 24.5475H54.869C54.4094 24.5475 54.3582 24.4958 54.3582 24.0316V19.6944C54.3582 19.2296 54.4094 19.1779 54.869 19.1779H70.3884C70.6433 19.1779 70.7456 19.2296 70.7456 19.3841C70.7456 19.4875 70.6944 19.5909 70.6433 19.6944L62.6284 34.9261Z" fill="white"/>
<path fill-rule="evenodd" clip-rule="evenodd" d="M73.7054 32.0344V19.6944C73.7054 19.2813 73.7561 19.1779 74.2157 19.1779H79.5253C79.9844 19.1779 80.0355 19.2813 80.0355 19.6944V31.9315C80.0355 34.8226 81.3119 35.9591 83.3027 35.9591C85.294 35.9591 86.5704 34.7715 86.5704 31.9315V19.6944C86.5704 19.2813 86.621 19.1779 87.0806 19.1779H92.339C92.7981 19.1779 92.8493 19.2813 92.8493 19.6944V32.0344C92.8493 37.3529 89.7863 41.535 83.3027 41.535C76.8196 41.535 73.7054 37.4046 73.7054 32.0344Z" fill="white"/>
<path fill-rule="evenodd" clip-rule="evenodd" d="M116.639 22.5339C116.69 22.5339 116.793 22.5339 116.844 22.4822C118.426 20.6236 120.519 18.6615 123.786 18.6615C129.3 18.6615 131.138 22.1208 131.138 27.0262V40.5027C131.138 40.9158 131.087 41.0192 130.627 41.0192H125.369C124.91 41.0192 124.859 40.9158 124.859 40.5027V28.3172C124.859 25.6836 123.991 24.2897 121.591 24.2897C119.039 24.2897 117.405 26.0967 117.405 29.1434V40.5027C117.405 40.9158 117.354 41.0192 116.894 41.0192H111.636C111.177 41.0192 111.126 40.9158 111.126 40.5027V28.3172C111.126 25.6836 110.258 24.2897 107.859 24.2897C105.306 24.2897 103.723 26.0967 103.723 29.1434V40.5027C103.723 40.9158 103.672 41.0192 103.213 41.0192H97.9547C97.4951 41.0192 97.444 40.9158 97.444 40.5027V19.6945C97.444 19.2814 97.4951 19.178 97.9547 19.178H103.213C103.672 19.178 103.723 19.2814 103.723 19.6945V21.6566C103.723 21.7077 103.876 21.7594 103.928 21.7594C103.979 21.7594 104.081 21.7594 104.132 21.7077C105.714 19.9525 107.45 18.6615 110.156 18.6615C113.78 18.6615 115.414 20.2622 116.384 22.431C116.486 22.5339 116.588 22.5339 116.639 22.5339Z" fill="white"/>
<path fill-rule="evenodd" clip-rule="evenodd" d="M147.168 24.1346C143.799 24.1346 141.757 26.9228 141.757 30.0725C141.757 33.3772 143.799 36.0621 147.168 36.0621C150.538 36.0621 152.529 33.3255 152.529 30.0208C152.529 26.8711 150.538 24.1346 147.168 24.1346ZM141.91 21.3463C141.91 21.398 142.063 21.4497 142.114 21.4497C142.165 21.4497 142.268 21.4497 142.319 21.398C143.595 19.9008 145.994 18.6615 148.751 18.6615C154.775 18.6615 158.91 23.8249 158.91 30.0208C158.91 36.2172 154.826 41.5352 148.751 41.5352C145.994 41.5352 143.595 40.2959 142.319 38.7986C142.268 38.7469 142.165 38.7469 142.114 38.7469C142.063 38.7469 141.91 38.7986 141.91 38.8503V51.346C141.91 51.7591 141.859 51.862 141.4 51.862H136.141C135.682 51.862 135.631 51.7591 135.631 51.346V19.6945C135.631 19.2814 135.682 19.178 136.141 19.178H141.4C141.859 19.178 141.91 19.2814 141.91 19.6945V21.3463Z" fill="white"/>
<path fill-rule="evenodd" clip-rule="evenodd" d="M167.64 27.491C167.64 27.9558 167.691 28.0075 168.15 28.0075H176.165C176.676 28.0075 176.727 27.9558 176.676 27.491C176.42 25.1676 174.94 23.6698 172.183 23.6698C169.682 23.7215 167.844 25.2193 167.64 27.491ZM173.766 36.5269C175.961 36.5269 178.412 35.8558 179.79 34.7711C179.841 34.7199 179.943 34.6682 180.096 34.6682C180.249 34.6682 180.301 34.8228 180.301 35.1842V39.4702C180.301 39.7282 180.147 39.8833 179.79 40.0896C178.616 40.9158 175.553 41.5352 173.153 41.5352C166.006 41.5352 161.513 36.5269 161.513 30.0208C161.513 23.6186 165.904 18.6615 172.235 18.6615C179.075 18.6615 182.802 23.4635 182.802 30.4339V31.2084C182.802 32.1896 182.751 32.3959 182.291 32.3959H168.405C167.946 32.3959 167.844 32.4476 167.844 32.8607C168.099 35.133 170.141 36.5269 173.766 36.5269Z" fill="white"/>
<path d="M192.171 41.0191C192.617 41.0191 192.667 40.9199 192.667 40.5235V32.5462C192.667 27.6408 194.401 24.7669 198.167 24.7669C198.96 24.7669 199.504 24.8661 199.703 24.8661C199.95 24.8661 200 24.7173 200 24.3209V19.1184C200 18.722 199.95 18.6227 199.504 18.6227C196.433 18.6227 194.005 20.6046 192.964 22.2894C192.915 22.339 192.816 22.339 192.766 22.339C192.716 22.339 192.567 22.2894 192.567 22.2398V19.663C192.567 19.2667 192.518 19.168 192.072 19.168H186.82C186.374 19.168 186.325 19.2667 186.325 19.663V40.5235C186.325 40.9199 186.374 41.0191 186.82 41.0191H192.171Z" fill="white"/>
<path d="M23.5686 36.4913C24.1556 36.4913 24.5472 36.884 24.5472 37.4731V47.4855C24.5472 48.0741 24.9384 48.4668 25.5259 48.4668H35.5081C36.0956 48.4668 36.4867 48.0741 36.4867 47.4855V30.7983C36.4867 30.602 36.6826 30.4056 36.6826 30.4056H40.0103C40.989 30.4056 41.576 29.4238 40.7931 28.6389L34.5294 22.3563C34.3335 22.1599 34.3335 21.9636 34.3335 21.5714V13.9148C34.3335 13.3257 33.9424 12.933 33.3549 12.933H29.4407C28.8531 12.933 28.462 13.3257 28.462 13.9148V16.467L21.2195 9.20311C20.8278 8.81039 20.2408 8.81039 19.8492 9.20311L0.275898 28.8347C-0.311311 29.4238 0.0801614 30.602 1.05884 30.602H4.3861C4.58194 30.602 4.77778 30.7983 4.77778 30.7983V47.4855C4.77778 48.0741 5.16946 48.4668 5.75646 48.4668H15.7391C16.3261 48.4668 16.7178 48.0741 16.7178 47.4855V37.4731C16.7178 36.884 17.109 36.4913 17.6965 36.4913H23.5686Z" fill="white"/>
<path d="M36.6828 2.52828C36.2911 -1.00563 32.5722 -0.612953 31.5936 2.33192C31.5936 2.52828 31.3977 2.52828 31.3977 2.33192C30.2237 -0.809316 26.309 -0.809317 26.1132 2.921C26.1132 6.25813 29.832 7.82903 31.2024 9.9885C31.3977 10.1849 31.5936 10.1849 31.7894 9.9885C33.1598 7.63267 37.0745 5.8654 36.6828 2.52828Z" fill="white"/>
</svg>
