<svg version="1.2" xmlns="http://www.w3.org/2000/svg" viewBox="0 0 192 212" width="192" height="212">
	<title>image</title>
	<style>
		.s0 { fill: #ffffff } 
		.s1 { fill: none;stroke: #74bc1f;stroke-linecap: round;stroke-linejoin: round;stroke-width: 4 } 
	</style>
	<path id="Layer" class="s0" d="m81.5 4.4c9-5.2 20-5.2 29 0l66.3 38.2c8.9 5.2 14.5 14.8 14.5 25.1v76.6c0 10.3-5.6 19.9-14.5 25.1l-66.3 38.2c-9 5.2-20 5.2-29 0l-66.3-38.2c-8.9-5.2-14.5-14.8-14.5-25.1v-76.6c0-10.3 5.6-19.9 14.5-25.1z"/>
	<path id="Layer" fill-rule="evenodd" class="s1" d="m121.5 128.4h17.7c6.4 0 11.5 4.8 11.5 10.7v25.4"/>
	<path id="Layer" fill-rule="evenodd" class="s1" d="m68.2 164.5v-25.4c0-3.7 2-7 5-8.9"/>
	<path id="Layer" fill-rule="evenodd" class="s1" d="m51.3 73.7c-5.6 1.9-9.6 6.9-9.6 12.8 0 3.7 1.6 7.1 4.2 9.5-0.8 2.2-1.3 4.6-1.3 7.1 0 11.8 10.2 21.3 22.8 21.3q1.7 0 3.3-0.2 0 0 0 0c0 2.1 0.8 4 2.2 5.5 1.6 1.7 3.9 2.8 6.5 2.8 3.1 0 5.7-1.5 7.3-3.7 2.3 2.7 3.2 3.5 7.2 3.5"/>
	<path id="Layer" fill-rule="evenodd" class="s1" d="m131.3 128.4c2.4 0 4.7-0.6 6.6-1.7 3.7-2.2 5.5-5.3 5.5-9.7 0-2.9-1.1-5.6-3-7.8 2.8-4.4 4.4-9.4 4.4-14.8 0-6.6-2.4-12.8-6.6-17.9"/>
	<path id="Layer" fill-rule="evenodd" class="s1" d="m120.5 114.8v17.5c0 6.8-5.9 12.4-13.3 12.4-7.3 0-13.3-5.5-13.3-12.4v-15.7"/>
	<path id="Layer" fill-rule="evenodd" class="s1" d="m60.9 84.5l1.8 11c0.5 3.1 6.2 4.9 9.5 4.8"/>
	<path id="Layer" fill-rule="evenodd" class="s1" d="m74.2 54.8c6.1-9.2 17-15.3 29.5-15.3 19 0 34.5 14.4 34.5 32.2v13.5c0 17.8-15.5 32.2-34.5 32.2-19.1 0-34.6-14.4-34.6-32.2v-3.6"/>
	<path id="Layer" fill-rule="evenodd" class="s1" d="m110.1 40.4v5.9c0 15.7 12.1 28.7 28.1 31.4v-6c0-15.6-12.2-28.7-28.1-31.3z"/>
	<path id="Layer" fill-rule="evenodd" class="s1" d="m77.2 62.9c-0.2-7.9-6.8-14.2-14.9-14.1-8.1 0.1-14.6 6.7-14.5 14.7 0.1 6.4 7.8 18.7 28.9 18.5 17.4-0.2 31.6-12.3 34.1-28"/>
	<path id="Layer" fill-rule="evenodd" class="s1" d="m94.2 88.9h-6.8"/>
	<path id="Layer" fill-rule="evenodd" class="s1" d="m121.4 88.9h-6.8"/>
	<path id="Layer" fill-rule="evenodd" class="s1" d="m110.5 100.8c-3.5 3.3-9.2 3.3-12.7 0"/>
</svg>