<svg version="1.2" xmlns="http://www.w3.org/2000/svg" viewBox="0 0 192 212" width="192" height="212">
	<title>image</title>
	<defs>
		<clipPath clipPathUnits="userSpaceOnUse" id="cp1">
			<path d="m42 37h107.12v130h-107.12z"/>
		</clipPath>
	</defs>
	<style>
		.s0 { fill: #ffffff } 
		.s1 { fill: none;stroke: #74bc1f;stroke-linecap: round;stroke-linejoin: round;stroke-width: 4 } 
	</style>
	<path id="Layer" class="s0" d="m81.5 4.4c9-5.2 20-5.2 29 0l66.3 38.2c8.9 5.2 14.5 14.8 14.5 25.1v76.6c0 10.3-5.6 19.9-14.5 25.1l-66.3 38.2c-9 5.2-20 5.2-29 0l-66.3-38.2c-8.9-5.2-14.5-14.8-14.5-25.1v-76.6c0-10.3 5.6-19.9 14.5-25.1z"/>
	<g id="Clip-Path" clip-path="url(#cp1)">
		<g id="Layer">
			<path id="Layer" fill-rule="evenodd" class="s1" d="m106.1 133.7h7.6c15.6 0 28.3 11.7 28.3 26.2v4.6"/>
			<path id="Layer" fill-rule="evenodd" class="s1" d="m44.8 164.5v-4.6c0-14.5 12.6-26.2 28.2-26.2h7.1"/>
			<path id="Layer" fill-rule="evenodd" class="s1" d="m106 125.4v8.3c0 6.5-12.6 18.5-12.6 18.5 0 0-12.7-12-12.7-18.5v-8.3"/>
			<path id="Layer" fill-rule="evenodd" class="s1" d="m139.6 94.2c4.2-3.3 6.8-8.2 6.8-13.6 0-7.9-5.5-14.6-13.3-17.1q0.4-1.3 0.4-2.8c0-5.7-5.1-10.3-11.4-10.3q-0.1 0-0.3 0c-7.2-6.7-17.2-10.9-28.2-10.9-19.5 0-35.7 13-39.2 30.1-5.8 3.2-9.7 9-9.7 15.5 0 5.9 3.1 11 7.8 14.4-0.9 1.7-1.3 3.5-1.3 5.4 0 8.3 8.5 15 19.1 15"/>
			<path id="Layer" fill-rule="evenodd" class="s1" d="m123.8 111.5c1.5 0.6 3.2 1 5 1 6.4 0 11.7-4.8 11.7-10.8 0-1.9-0.6-3.7-1.5-5.3"/>
			<path id="Layer" fill-rule="evenodd" class="s1" d="m129 79.3v18c0 16-15.9 29-35.4 29-19.6 0-35.4-13-35.4-29v-15.1"/>
			<path id="Layer" fill-rule="evenodd" class="s1" d="m126.5 79.5c1.1-0.4 2.4-0.6 3.7-0.6 5.9 0 10.8 4.5 10.8 10 0 5.6-4.9 10.1-10.8 10.1"/>
			<path id="Layer" fill-rule="evenodd" class="s1" d="m58.2 98.9c-6 0-8.8-4.4-8.8-10 0-5.5 4.9-10 10.8-10"/>
			<path id="Layer" fill-rule="evenodd" class="s1" d="m129 82.2v11.3c0 18.2-15.9 32.9-35.4 32.9-19.6 0-35.4-14.7-35.4-32.9"/>
			<path id="Layer" fill-rule="evenodd" class="s1" d="m84.3 111.8c7.1 2.6 14.8 2 21.1-1.1"/>
			<path id="Layer" fill-rule="evenodd" class="s1" d="m129.2 79.1c-15.2 0.8-33.7-3.8-41-18.3l-5-10.1c-1.6 10.8-8.5 20.8-19.6 26.2-2.4 1.1-4.1 1.9-6.8 2.7"/>
			<path id="Layer" fill-rule="evenodd" class="s1" d="m83.1 87.2h-6.4"/>
			<path id="Layer" fill-rule="evenodd" class="s1" d="m109 87.2h-6.5"/>
			<path id="Layer" fill-rule="evenodd" class="s1" d="m98.3 100.4h-7v-16.6"/>
			<path id="Layer" fill-rule="evenodd" class="s1" d="m93.4 152.2l11.2 10.4"/>
			<path id="Layer" fill-rule="evenodd" class="s1" d="m62.4 135.6l24.8 9.9-12.4 6.7 16.5 10.4"/>
			<path id="Layer" fill-rule="evenodd" class="s1" d="m124.5 135.6l-24.8 9.9 12.4 6.7-11.2 7"/>
		</g>
	</g>
</svg>